<svg height="512pt" viewBox="-55 0 512 512.03186" width="512pt" xmlns="http://www.w3.org/2000/svg"><path d="m201.15625 384.03125c60.414062 0 81.132812-26.304688 88.085938-47.203125l-15.578126-1.359375c1.480469 4.234375-.371093 8.917969-4.347656 10.992188-4.496094 2.292968-10.003906.511718-12.304687-3.984376-2.324219-4.625-4.363281-9.390624-6.105469-14.265624l-.105469-.316407-.015625-.050781c-4.359375-11.917969-7.59375-24.214844-9.664062-36.734375-24.765625 14.140625-55.152344 14.179687-79.960938.105469-2.070312 12.644531-5.34375 25.0625-9.78125 37.085937-1.738281 4.84375-3.765625 9.574219-6.078125 14.171875-2.296875 4.496094-7.804687 6.277344-12.300781 3.980469-3.980469-2.074219-5.832031-6.753906-4.351562-10.988281l-15.574219 1.355468c6.949219 20.90625 27.667969 47.210938 88.082031 47.210938zm0 0"/><path d="m332.1875 340.566406-24.34375-2.117187c-6.730469 24.101562-29.511719 63.867187-106.6875 63.867187-77.179688 0-99.957031-39.769531-106.691406-63.871094l-24.355469 2.121094c-36.703125 3.164063-65.96875 31.980469-69.695313 68.632813-3.726562 36.652343 19.140626 70.769531 54.457032 81.253906v-51.5625c0-5.050781 4.09375-9.144531 9.140625-9.144531 5.050781 0 9.144531 4.09375 9.144531 9.144531v54.855469c.007812 10.09375 8.191406 18.277344 18.285156 18.285156h219.429688c10.09375-.007812 18.273437-8.191406 18.285156-18.285156v-54.855469c0-5.050781 4.09375-9.144531 9.140625-9.144531 5.050781 0 9.144531 4.09375 9.144531 9.144531v51.5625c35.324219-10.480469 58.195313-44.605469 54.464844-81.261719s-33.007812-65.476562-69.71875-68.625zm0 0"/><path d="m134.988281 233.828125c15.492188 32.945313 37.746094 49.632813 66.167969 49.632813 28.191406 0 50.390625-16.695313 65.976562-49.625 13.582032-28.546876 16.308594-59.476563 16.308594-100.136719 0-.609375-.023437-1.222657-.027344-1.835938-8.203124-8.726562-17.648437-16.199219-28.03125-22.171875-3.621093.609375-7.203124 1.449219-10.71875 2.519532-14.121093 4.230468-28.765624 6.480468-43.507812 6.679687-14.742188-.199219-29.386719-2.445313-43.511719-6.675781-3.699219-1.167969-7.496093-1.996094-11.347656-2.46875-10.054687 6.152344-19.265625 13.585937-27.398437 22.117187 0 .613281-.027344 1.226563-.027344 1.839844 0 3.386719 0 6.6875.082031 9.894531-.328125 21.464844 1.914063 42.894532 6.675781 63.828125 2.25 9.082031 5.386719 17.925781 9.359375 26.402344zm0 0"/><path d="m45.660156 121.074219c-4.3125.867187-7.398437 4.6875-7.339844 9.085937.054688 4.398438 3.234376 8.136719 7.566407 8.898438 4.015625.730468 7.058593 4.027344 7.464843 8.085937.40625 4.058594-1.925781 7.894531-5.714843 9.40625-3.84375 1.5625-6.140625 5.535157-5.578125 9.652344.566406 4.113281 3.847656 7.320313 7.972656 7.792969 3.613281.4375 6.621094 2.980468 7.65625 6.46875 1.039062 3.488281-.089844 7.261718-2.875 9.601562-2.976562 2.460938-4.089844 6.523438-2.789062 10.15625 1.304687 3.636719 4.746093 6.0625 8.605468 6.070313.675782-.011719 1.347656-.097657 2.003906-.253907 3.113282-.671874 6.351563.324219 8.546876 2.628907 2.199218 2.304687 3.039062 5.585937 2.21875 8.664062-.167969.695313-.25 1.410157-.242188 2.128907.003906 5.046874 4.09375 9.136718 9.140625 9.140624 1.863281-.019531 3.679687-.582031 5.230469-1.609374 2.355468-1.546876 5.292968-1.917969 7.960937-1.007813s4.765625 3 5.6875 5.664063c.976563 2.898437 3.363281 5.101562 6.332031 5.835937 2.972657.734375 6.109376-.097656 8.324219-2.210937-3.21875-7.570313-5.867187-15.371094-7.925781-23.335938-5.125-22.289062-7.554688-45.117188-7.234375-67.984375-.089844-3.222656-.089844-6.695313-.089844-10.253906 0-1.746094.03125-3.492188.085938-5.242188-.011719-.308593-.007813-.621093.011719-.929687v-.011719l.007812-.023437c.074219-1.183594.378906-2.34375.902344-3.40625.050781-.105469.136718-.183594.191406-.289063.378906-.8125.878906-1.566406 1.480469-2.230469 13.734375-13.734375 32.347656-30.105468 43.035156-30.105468 5.46875.359374 10.871094 1.398437 16.082031 3.089843 12.585938 3.785157 25.632813 5.820313 38.777344 6.050781 13.140625-.230468 26.1875-2.265624 38.777344-6.050781 5.210937-1.691406 10.613281-2.730469 16.078125-3.089843 10.6875 0 29.304687 16.363281 43.035156 30.105468.40625.484375.753906 1.011719 1.042969 1.570313.253906.332031.484375.679687.691406 1.039062.488281 1.042969.773438 2.164063.839844 3.3125l.007812.03125v.007813c.019532.3125.027344.621094.015625.933594.054688 1.746093.082031 3.492187.082031 5.238281 0 40.28125-2.761718 71.78125-15.3125 101.5 2.199219 2.152343 5.351563 3.019531 8.34375 2.296875 2.988282-.722656 5.398438-2.933594 6.375-5.847656.921876-2.664063 3.019532-4.753907 5.6875-5.664063 2.667969-.910156 5.605469-.539063 7.964844 1.007813 1.550782 1.027343 3.367188 1.589843 5.226563 1.609374 5.046875-.003906 9.136719-4.09375 9.144531-9.140624.003906-.71875-.074219-1.433594-.242188-2.128907-.820312-3.078125.019532-6.359375 2.21875-8.664062 2.195313-2.304688 5.433594-3.300781 8.546876-2.628907.65625.15625 1.328124.242188 2.003906.257813 3.859375-.011719 7.300781-2.4375 8.605468-6.074219 1.300782-3.632812.1875-7.695312-2.789062-10.15625-2.785156-2.339844-3.917969-6.113281-2.878906-9.601562 1.039062-3.488282 4.046875-6.03125 7.660156-6.46875 4.125-.472656 7.40625-3.679688 7.96875-7.792969.566406-4.117187-1.730469-8.089844-5.578125-9.652344-3.789063-1.511719-6.121094-5.347656-5.714844-9.40625.40625-4.058593 3.453125-7.355469 7.464844-8.085937 4.335937-.761719 7.515625-4.5 7.570313-8.898438.054687-4.398437-3.027344-8.21875-7.339844-9.085937-3.730469-.773438-6.589844-3.777344-7.179688-7.539063-.589844-3.761718 1.214844-7.492187 4.527344-9.371094 2.832031-1.648437 4.582031-4.675781 4.597656-7.953124.019532-4.699219-3.539062-8.644532-8.21875-9.097657-3.238281-.320312-6.0625-2.339843-7.414062-5.300781-1.351563-2.960938-1.027344-6.417969.851562-9.074219 1.210938-1.652343 1.871094-3.640625 1.886719-5.6875-.007813-5.046875-4.09375-9.136719-9.140625-9.144531l-.941406.011719c-3.179688.25-6.28125-1.101563-8.261719-3.605469-1.945313-2.464844-2.488281-5.757812-1.445313-8.71875.347657-.914062.515626-1.886719.5-2.863281.023438-2.433594-.933593-4.773438-2.652343-6.492188-1.71875-1.722656-4.058594-2.675781-6.492188-2.652343-1.929687.015624-3.808593.625-5.378906 1.742187-3.039063 2.117187-7.058594 2.195313-10.171875.191406-3.117188-2.003906-4.71875-5.691406-4.050781-9.335937.082031-.421875.125-.851563.128906-1.28125.007813-4.175782-2.816406-7.828125-6.859375-8.859375-4.046875-1.035157-8.277344.808593-10.269531 4.476562-2.128907 3.867188-6.710938 5.664063-10.898438 4.269531-4.1875-1.390624-6.78125-5.578124-6.167969-9.945312-.039062-4.328125-3.109374-8.03125-7.355468-8.871094-4.242188-.839844-8.496094 1.410156-10.179688 5.394532-1.648437 3.902343-5.757812 6.160156-9.933594 5.460937-4.175781-.699219-7.324218-4.171875-7.613281-8.398437-.371093-4.898438-4.558593-8.621094-9.46875-8.4218755-4.910156.1992185-8.78125 4.2539065-8.753906 9.1679685 0 5.046875-4.09375 9.140625-9.140625 9.140625-5.050781 0-9.144531-4.09375-9.144531-9.140625.003906-4.898437-3.855469-8.925781-8.75-9.1249998-4.890625-.2031252-9.070313 3.4921878-9.46875 8.3749998-.285157 4.222657-3.4375 7.699219-7.613281 8.398438-4.171876.699219-8.285157-1.5625-9.929688-5.460938-1.6875-3.980469-5.933594-6.234375-10.175781-5.398437-4.242188.832031-7.316407 4.53125-7.367188 8.851562.628907 4.375-1.957031 8.574219-6.148437 9.972656-4.191406 1.402344-8.785156-.394531-10.914063-4.265624-1.992187-3.671876-6.222656-5.515626-10.269531-4.484376-4.046875 1.035157-6.871094 4.683594-6.859375 8.863282 0 .429687.042969.859375.125 1.285156.664063 3.644531-.933594 7.328125-4.050781 9.332031-3.117188 2.003907-7.132813 1.929688-10.171875-.191406-1.574219-1.117187-3.449219-1.722656-5.378907-1.742187-2.429687-.023438-4.769531.929687-6.492187 2.652343-1.71875 1.71875-2.671875 4.058594-2.648437 6.492188-.015626.976562.152343 1.949219.5 2.863281 1.152343 3.023438.621093 6.429688-1.394532 8.957031-2.015625 2.53125-5.21875 3.804688-8.421875 3.355469h-.832031c-5.046875.007812-9.136719 4.097656-9.144531 9.144531.015625 2.046875.675781 4.039063 1.890625 5.691407 1.878906 2.65625 2.203125 6.113281.851562 9.074218-1.351562 2.957032-4.175781 4.976563-7.414062 5.300782-4.679688.453124-8.242188 4.394531-8.21875 9.097656.015625 3.277344 1.765625 6.304687 4.597656 7.953125 3.3125 1.878906 5.113281 5.609375 4.523438 9.371093-.589844 3.761719-3.449219 6.761719-7.175782 7.535157zm0 0"/></svg>